<?xml version="1.0" encoding="UTF-8"?>
<svg xmlns="http://www.w3.org/2000/svg" xmlns:xlink="http://www.w3.org/1999/xlink" width="1280" height="640" >
  <!--<defs id="defs6">
    <polygon points="0,-9 1.735535,-3.6038755 7.0364833,-5.6114082 3.8997116,-0.89008374 8.7743512,2.0026884 3.1273259,2.4939592 3.9049537,8.1087198 0,4 -3.9049537,8.1087198 -3.1273259,2.4939592 -8.7743512,2.0026884 -3.8997116,-0.89008374 -7.0364833,-5.6114082 -1.735535,-3.6038755 0,-9 " id="Star7"/>
    <polygon points="0,-9 2.351141,-3.236068 8.5595086,-2.7811529 3.8042261,1.236068 5.2900673,7.2811529 0,4 -5.2900673,7.2811529 -3.8042261,1.236068 -8.5595086,-2.7811529 -2.351141,-3.236068 0,-9 " id="Star5"/>
  
    
    <pattern id="img1" patternUnits="userSpaceOnUse" width="100" height="100">
      <image xlink:href="wall.jpg" x="0" y="0" width="100" height="100" />
    </pattern>
  </defs>-->
  <defs xmlns="http://www.w3.org/2000/svg">
    <pattern id="img7" patternUnits="userSpaceOnUse" width="600" height="450">
      <image xmlns:xlink="http://www.w3.org/1999/xlink" xlink:href="http://silviahartmann.com/background-tile/6-grass-meadow-tile.php" x="0" y="0" width="600" height="450"/>
      <!-- Image from http://silviahartmann.com/background-tile/6-grass-meadow-tile.php-->
    </pattern>
  
    <pattern id="img1"  x="0" y="0" width="1" height="1">
      <image width="120" id="image" height="250"
             xlink:href="http://lorempixel.com/animals/120/250/"/>
    </pattern>
  </defs>



  <path style="fill:url(#img1)" stroke="black" stroke-width="4"
        d="M 100,50 L 120,110 150,90 170,220 70,300 50,250 50,200 70,100 50,70 Z" id="id" />
  </svg>
